<svg id="Layer_1" data-name="Layer 1" xmlns="http://www.w3.org/2000/svg" viewBox="0 0 95.33 120.59"><title>Logogedöns Albrecht</title><path d="M197,198.73c0.18-1.32-.6-1.81-1.72-1.94a16,16,0,0,1-2.15-.13,3.33,3.33,0,0,1-1.07-.94,2.66,2.66,0,0,1,1.1-.72c1.44,0.06,2.89,0,4.19,1,1.46,1.08,3.24.93,4.94,0.84,3-.17,4.55-1.41,5.44-4.25a5.16,5.16,0,0,0,0-1.63c-0.46.13-.91,0.27-1.38,0.37-2.35.53-4.69,1.12-7.05,1.54s-5,.64-7.43,1.07a2.69,2.69,0,0,0-1.54,1.07,3.54,3.54,0,0,1-2.71,1.86c-1.88.19-4.41,3.75-4.22,5.63a5.38,5.38,0,0,0,2.92,3.2,19.31,19.31,0,0,0,2.19.57c1.41,0.2,1.61,1,1.37,2.22-0.3,1.5-.45,3-0.73,4.54a3.64,3.64,0,0,1-.64,1.24c-0.5.75-1.07,1.46-1.57,2.22a4.39,4.39,0,0,1-4.06,1.64c-2-.61-3.86-1.48-5.85-1.94a23.92,23.92,0,0,0-5.63-.62c-2.11,0-3.28,1.69-4.41,3.22a17.8,17.8,0,0,0-1.07,1.72c-0.38.67-.59,1.73-1.13,1.94a7.77,7.77,0,0,1-3.49.47,12.56,12.56,0,0,1-7.6-3.83,14.61,14.61,0,0,1-2.7-3.18c-0.36-.66,0-1.75.09-2.63,0.15-1.25.42-2.49,0.57-3.74,0.1-.86.06-1.75,0.12-2.62a2.23,2.23,0,0,0-2.67-2.26c-1.37.17-2.72,0.53-4.08,0.83a2.74,2.74,0,0,0-.6.53c1,0.18,1.66.33,2.37,0.43a3.2,3.2,0,0,1,1.06,0,4.5,4.5,0,0,1,1.49,1.36,1.57,1.57,0,0,1-.58,1.27,6.22,6.22,0,0,0-2.36,3.89,2.36,2.36,0,0,1-.61.78,5.22,5.22,0,0,1-.59-0.64,1.71,1.71,0,0,0-2.87.14,1.24,1.24,0,0,0,.42,1.14,3.09,3.09,0,0,1,1.8,3,10.18,10.18,0,0,0,.49,1.84,1.39,1.39,0,0,1-.16.58,1.59,1.59,0,0,1-.48-0.39,3.14,3.14,0,0,1-.47-1.22c-0.07-2-1.73-2.65-3.05-3.49a2.57,2.57,0,0,0-1.92,0c-1.42.5-2.78,1.14-4.15,1.76a7.17,7.17,0,0,0-1.89,1c-1.47,1.31-3.14,1.17-4.84.81-1-.21-1.26-1.1-1.49-2,2.29,1.75,4.43.46,6.42-.35,4.22-1.71,8.35-3.64,12.5-5.52,0.89-.4,1.93-0.71,2.3-1.95-1.85-.48-3.52-0.94-5.29.24-1.58,1.06-3.48.93-5.31,0.9a2.73,2.73,0,0,0-1.37.18c-2.09,1.24-4.11,2.59-6.2,3.82a24.55,24.55,0,0,1-3.23,1.48,0.86,0.86,0,0,1-.67-0.41,6.78,6.78,0,0,1-.37-1.32c2.47,0.31,4-1.56,6-2.43,0.47-.21.88-0.56,1.35-0.74,2.93-1.09,2.61-3.25,2.17-5.71a14.81,14.81,0,0,1,.07-5.27,49.91,49.91,0,0,1,2-7.14,31.69,31.69,0,0,1,2.46-5.52,84.08,84.08,0,0,1,5-7.69,23.06,23.06,0,0,1,5.23-5.63c1.29-.89,2.25-2.35,3.62-3,1.84-.91,2-2.57,2.58-4.11,0.78-2.12,1.54-4.24,2.31-6.36a3.18,3.18,0,0,0,.22-0.41c0.08-.44.13-0.88,0.19-1.32a3.07,3.07,0,0,0-1.5.18c-1.69,1.53-3.32,3.13-4.92,4.76-2.54,2.6-5.17,5.13-7.52,7.9-2.56,3-4.89,6.24-7.2,9.46a70.26,70.26,0,0,0-4.6,7.21c-1.55,2.85-2.88,5.82-4.18,8.8-0.86,2-1.5,4-2.26,6a2.21,2.21,0,0,1-.43.53l-0.36-.11c0.35-1.32.59-2.68,1.07-4,0.93-2.49,2-4.94,3-7.38,0.51-1.17,1.16-2.29,1.77-3.42,1-1.8,1.93-3.62,3-5.36s2.14-3.21,3.26-4.78,2.36-3.35,3.65-4.95c2.1-2.62,4.29-5.17,6.44-7.76a34.66,34.66,0,0,1,2.49-3c1.56-1.49,3.24-2.84,4.85-4.29,1.07-1,2.39-1.56,3.06-3.06,0.35-.78,1.61-1.15,2.47-1.68a11.62,11.62,0,0,1,2.23-1.27,19.76,19.76,0,0,1,3.61-.8,1.38,1.38,0,0,1,.74.93,23.17,23.17,0,0,0,3.74,8.18,7,7,0,0,0,1.19,1.3,36.91,36.91,0,0,0,4,3.49,11.37,11.37,0,0,0,3.64,1.39,29.13,29.13,0,0,0,4.6.71,2.85,2.85,0,0,1,2.22,1.15c1.84,2.36,3.86,4.6,5.51,7.08a12.74,12.74,0,0,1,1.75,4c0.45,1.95.74,4.18-.63,6.12a24.47,24.47,0,0,0-1.26,2.41,2.1,2.1,0,0,1-.67.81c-2.09,1.22-4.16,2.47-6.31,3.57s-4.3,1.91-6.42,2.95c-2.71,1.33-5.37,2.76-8.07,4.13-2.44,1.23-4.9,2.42-7.34,3.65s-4.66,2.86-7.19,3.52c-2.7.71-3.34,2.21-3.37,4.58a3.66,3.66,0,0,1-.56,1.93c-0.73,1.07-.42,1.76.4,2.58s1.17,1.68,1.88,2.39a6.93,6.93,0,0,0,2.25,1.63,25.54,25.54,0,0,0,5.19,1.57c1.94,0.31,3.44-.94,4.27-2.74a8.13,8.13,0,0,1,6.2-4.8c2.38-.46,4.43.41,6.34,1.53a7.91,7.91,0,0,0,7,.57,2.37,2.37,0,0,0,1.28-1.17,40.36,40.36,0,0,0,1.77-5.13,1.39,1.39,0,0,0-1.35-1.65,6.55,6.55,0,0,1-4.18-2.9c-1.11-1.57-1.16-4.56,0-5.83a26.67,26.67,0,0,1,3.85-3.47c1.18-.91,2.55-1.57,3.75-2.46a8.48,8.48,0,0,1,4-1.39c3.65-.56,7.29-1.18,10.9-2a5.1,5.1,0,0,0,2.24-1.71c0.6-.66,1.1-0.72,1.54.11,0.62,1.18.12,2.24-.41,3.28a33.32,33.32,0,0,0-1.71,3.36c-0.29.76,0.44,1,1,.83,2.37-.48,4.73-1,7.08-1.55a23,23,0,0,0,2.19-.94,2.78,2.78,0,0,1,1,0,3.36,3.36,0,0,1-.07,1,7,7,0,0,1-.63.86c-0.74,1.25-1.4,2.56-2.2,3.77a9.76,9.76,0,0,1-1.81,2,21.62,21.62,0,0,1-2.78,2c-0.8.49-1.71,0.78-2.54,1.22a6.36,6.36,0,0,0-1,.78c0.35,0.19.69,0.4,1,.56a10.33,10.33,0,0,1,1.74.72,41.38,41.38,0,0,0,3.54,2.61c1.59,0.86,3.35,1.4,5,2.11a2.07,2.07,0,0,1,1.16.73,1.87,1.87,0,0,1-.64,1.26c-0.83.88-1.83,1.61-2.6,2.53a4,4,0,0,1-3.57,1.55c-1.15-.08-2.3-0.22-3.45-0.31-0.54,0-1.08,0-1.91,0,0.88,1.25,1.63,2.25,2.31,3.28,1.11,1.68,2.64,3.25,3.14,5.1,0.54,2,2.12,3.72,1.75,6a18.61,18.61,0,0,0,.3,3.3,2.09,2.09,0,0,1-.48,1.47,1.56,1.56,0,0,1-1.42.11,12.5,12.5,0,0,1-2.22-1.58q-2.64-2.2-5.22-4.46a31.4,31.4,0,0,1-2.72-2.63c-0.42-.47-0.54-1.22-0.94-1.72a1.51,1.51,0,0,0-1.2-.58c-0.65.26-.29,0.75,0,1.27,1.3,2.72,2.6,5.45,3.75,8.24a28,28,0,0,1,1.74,5.47,17.61,17.61,0,0,1-.15,8.72c-0.49,1.55-.61,3.19-1.75,4.51a6.09,6.09,0,0,0-.25,1.36q-1.15,2.75-2.41,5.45a2.15,2.15,0,0,1-.81.55l-0.28-.88a1.59,1.59,0,0,1,1.11-2.3,1.72,1.72,0,0,0,.65-1c0.93-2.21,1.84-4.43,2.75-6.64a1.53,1.53,0,0,0,.18-0.43c0.1-1.82.22-3.63,0.26-5.45a10.85,10.85,0,0,0-.25-2.5c-0.33-1.52-.69-3-1.17-4.52-0.75-2.33-1.54-4.65-2.47-6.91a13,13,0,0,0-1.76-2.47l-0.3.21a6.42,6.42,0,0,0,.32-1.81,2.5,2.5,0,0,0-3.07-2c-0.71.1-1.4,0.28-2.1,0.42a1.92,1.92,0,0,0-1.73,1.84,4.82,4.82,0,0,0-1.54-1.16,5.52,5.52,0,0,0-2,.34,1.68,1.68,0,0,1-.36,0,17.48,17.48,0,0,1-3.64-.17c-0.47-.11-0.73-1.13-1.08-1.73a6.92,6.92,0,0,1,1.79-.43c0.92,0,1.84.37,2.76,0.36a6,6,0,0,0,1.82-.62,2.42,2.42,0,0,1,.63-0.27c0.9,0,1.8,0,2.69-.05,1.26-.15,2.51-0.42,3.89-0.65,0.92,1.51,4.61,1.38,5.7-.5a1.37,1.37,0,0,0,.1-1,31.12,31.12,0,0,0-1.71-4.08,4.29,4.29,0,0,0-1.68-1.23,0.78,0.78,0,0,0-.74.12c-0.63,1.21-1.93,2.14-1.53,3.79a3.67,3.67,0,0,1-.14,1.77c-0.35-.84-0.67-1.7-1.07-2.51a2.6,2.6,0,0,0-.79-0.85c-0.83-.62-1.15-0.36-1.68.56a3.59,3.59,0,0,1-1.89,1.7c-1,.23-1.3.61-1.32,1.91A28.94,28.94,0,0,1,190,219a1,1,0,0,1,.45-0.84c0.66-.25,1.44-0.23,2.06-0.54,0.84-.41,2-0.9,2.24-1.61s-0.44-1.79-.85-2.65a4.86,4.86,0,0,0-1-.84,2.21,2.21,0,0,1-.72-1,3.52,3.52,0,0,1,1.18-1.07,24.23,24.23,0,0,0,2.48-1.57c0.93-.81.87-1.6,0-2.43-0.64-.58-1.33-1.12-2-1.65a1.33,1.33,0,0,1-.48-1.88,1.83,1.83,0,0,0-.6-2.59c-0.47-.36-1.22-0.76-0.49-1.31a1.87,1.87,0,0,1,1.75.35c1.28,1.31,1.34,1.35,2.48-.19a2.46,2.46,0,0,1,.67-0.45,2.46,2.46,0,0,0,2.06,2.42c0.39,0.11.55,1,.84,1.54a2.5,2.5,0,0,0,.63.85,2.27,2.27,0,0,0,1.3-.82,17.16,17.16,0,0,0,.76-3,1.17,1.17,0,0,0-.51-0.25c-1.26-.32-2.51-0.67-3.78-0.91A4.05,4.05,0,0,0,197,198.73Zm-48,3.47,0.09,0.26a6,6,0,0,1,1.06.1,2.43,2.43,0,0,1,2.12,2c0.15,1.26.42,1.49,1.63,1s2.63-1.09,3.91-1.72c4.91-2.41,9.81-4.86,14.71-7.28,4.47-2.21,9-4.39,13.43-6.6a5.13,5.13,0,0,0,1-.88,6.2,6.2,0,0,0-1-.89,6.29,6.29,0,0,1-3.36-4.49c-0.15-.81-0.65-0.94-1.3-0.5-2.34,1.55-4.66,3.13-7,4.66-0.95.62-1.95,1.15-2.93,1.73-1.52.9-3,1.8-4.56,2.68-0.6.35-1.24,0.62-1.83,1-1.1.67-2.17,1.37-3.25,2.06-0.43.28-.83,0.6-1.28,0.84-1.39.74-2.81,1.43-4.2,2.18s-2.82,1.57-4.24,2.34C151,201.15,150,201.67,149.06,202.2Zm14-43.4,0.21,0.41a2.4,2.4,0,0,0,.87,0,0.88,0.88,0,0,1,1.33.72,1.42,1.42,0,0,1-.39,1.23c-1.57.58-1.14,2-1.44,3.13a1.83,1.83,0,0,0,.46.84,5.13,5.13,0,0,0,.52-0.68,6.91,6.91,0,0,1,1-1.83,3,3,0,0,1,1.57-.07,6.52,6.52,0,0,1-.08,1.68c-0.33,1-.83,2-1.16,3a1,1,0,0,0,.64.67,1.42,1.42,0,0,0,.76-0.69c0.08-.14-0.24-0.5-0.16-0.65a2,2,0,0,1,.81-1.11,4.29,4.29,0,0,1,1.64.28,3.17,3.17,0,0,1-.42,1.42,2.13,2.13,0,0,0-.45,2.52,2.38,2.38,0,0,0,1,.7,5.77,5.77,0,0,0,.39-1,5.24,5.24,0,0,1-.08-0.82,2.22,2.22,0,0,1,.82-1.18,2,2,0,0,1,1.55.18,1.72,1.72,0,0,1,.13,1.29c-0.05.31-.49,0.56-0.54,0.87a11.26,11.26,0,0,0-.15,2.25,1.18,1.18,0,0,0,.9.22c0.82-.37.29-1.07,0.35-1.65a2.38,2.38,0,0,1,.92-1.37,1.19,1.19,0,0,1,1.05.41,2.49,2.49,0,0,1-.1,1.35,6.15,6.15,0,0,0-.38,1.23,4.13,4.13,0,0,0,.41,1.55,1.35,1.35,0,0,0,.84,0,9.23,9.23,0,0,0,.12-1.57c0-.12-0.07-0.24-0.06-0.35a0.78,0.78,0,0,1,1.09-.85c1.77,0.38,3.54.74,5.32,1.06a1.14,1.14,0,0,1,.83,2c-0.76,1.13-.56,1.55.66,2.16a23,23,0,0,1,2.47,1.7,1.31,1.31,0,0,0,.73.29,8.09,8.09,0,0,1,5.26,1.21,3.51,3.51,0,0,0-.22-2c-1.19-1.78-2.51-3.47-3.81-5.17a10.59,10.59,0,0,0-1.68-1.91,6.6,6.6,0,0,0-4.11-1.18c-4.42-.16-7.74-2.83-10.64-5.71a19.65,19.65,0,0,1-5.1-9.4c-0.53-2.15-1.49-2.49-3.39-1.25a1.58,1.58,0,0,0-.64,1.15c0,0.82.09,1.52-1,1.71a1.31,1.31,0,0,0-.44.49,2.47,2.47,0,0,0,.63.44,6.43,6.43,0,0,0,.71,0,2.52,2.52,0,0,1,1.36.36,3.09,3.09,0,0,1-.2,1.65A1.52,1.52,0,0,1,163.09,158.8Zm-10.92,14.41-0.34-.31a21.46,21.46,0,0,0-2.29,1.94q-2.22,2.46-4.27,5.07c-1.29,1.64-2.51,3.35-3.69,5.06a17.74,17.74,0,0,0-.91,1.92c-0.93,1.78-2.06,3.49-2.81,5.35a33.34,33.34,0,0,0-2.34,10,1.68,1.68,0,0,0,.23,1.19,1.56,1.56,0,0,0,1.31-.18c1.27-1,2.47-2.07,3.67-3.14a1.36,1.36,0,0,0,.15-0.56,27.22,27.22,0,0,1,1.14-3.7c1.21-2.62,2.65-5.13,3.85-7.75,1.12-2.44,2.06-5,3.1-7.45S151.11,175.69,152.18,173.21Zm51,50.85a10.23,10.23,0,0,0,1.22,2.27c2.16,2.3,4.4,4.53,6.65,6.75a6.88,6.88,0,0,0,1.76,1.19,1.14,1.14,0,0,0,1-.07c0.75-.71.83-2.93,0.25-3.81a4.45,4.45,0,0,1-.45-0.92,27.22,27.22,0,0,0-1.38-3.77c-1.5-2.74-3.22-5.36-4.72-8.11a6.24,6.24,0,0,0-3-2.59,2.55,2.55,0,0,0-1,0,3.41,3.41,0,0,0,0,1,19.75,19.75,0,0,1,.94,2.52c0.22,1.21.71,1.78,2,1.72a2.08,2.08,0,0,1,1.28,1,39.1,39.1,0,0,1,2.72,4.14,46.43,46.43,0,0,1,1.93,4.45,1.67,1.67,0,0,1,0,.67,1.51,1.51,0,0,1-.71-0.19,9.15,9.15,0,0,1-1.22-1.69,19.7,19.7,0,0,0-1.63-3.4,13.53,13.53,0,0,0-3-2.4,2.08,2.08,0,0,0-1.49-.48A6.08,6.08,0,0,0,203.16,224.06Zm-45.7-54.89a1.37,1.37,0,0,0-.39-0.52,0.67,0.67,0,0,0-.62.11,13.94,13.94,0,0,0-.94,1.49c-0.79,1.38-1.68,2.72-2.33,4.16-1,2.19-1.79,4.48-2.74,6.69-0.47,1.09-1.17,2.08-1.63,3.17-0.9,2.14-1.61,4.36-2.57,6.47-0.78,1.7-1.83,3.28-2.75,4.92-0.56,1-1.12,2-1.65,3a2.61,2.61,0,0,0-.13.79,2,2,0,0,0,.9.1,5.13,5.13,0,0,0,1-.77c0.49-.39,1-0.79,1.48-1.17a6.66,6.66,0,0,0,1.52-1.19,10.39,10.39,0,0,0,.91-2.17c1.45-3.72,2.9-7.45,4.36-11.17,1.07-2.72,2.18-5.43,3.27-8.15,0.7-1.75,1.39-3.51,2.08-5.26Zm3.53-2.8-0.45-.29c-0.09.22-.17,0.44-0.27,0.65-0.6,1.24-1.25,2.45-1.8,3.71-0.63,1.44-1.21,2.91-1.77,4.37-0.85,2.22-1.68,4.46-2.51,6.69-0.12.33-.21,0.67-0.33,1-0.47,1.33-.88,2.68-1.42,4-1.46,3.44-3,6.86-4.47,10.28a2.26,2.26,0,0,0-.16.45c-0.19,1,.52,2.79,1.14,3s1.63-.89,2-2.2c0.58-2.06,1.23-4.11,1.91-6.14,0.52-1.54,1.18-3,1.68-4.57,0.86-2.62,1.62-5.26,2.47-7.88,0.57-1.76,1.28-3.47,1.85-5.22,0.75-2.33,1.43-4.68,2.12-7A2.91,2.91,0,0,0,161,166.37Zm3.26,1.72a2.06,2.06,0,0,0-.75-0.8,1.21,1.21,0,0,0-1,.52c-0.77,2.24-1.46,4.52-2.17,6.78-0.54,1.73-1.07,3.47-1.64,5.2s-1.28,3.71-1.93,5.56c-0.94,2.66-1.84,5.34-2.84,8-0.46,1.22-1.12,2.37-1.67,3.56-0.37.8,0.12,1.6,0.83,1.27,1.06-.49,2.37-1.12,2.85-2.06a29.55,29.55,0,0,0,1.56-5.25q0.92-3.18,1.9-6.34c0.51-1.62,1.13-3.22,1.59-4.85,0.81-2.88,1.51-5.79,2.3-8.67C163.52,170.06,163.88,169.18,164.26,168.09Zm2.86,2.68a2.91,2.91,0,0,0-1.18-.86,1.62,1.62,0,0,0-1.19.83,22.85,22.85,0,0,0-.59,2.54c-0.53,1.9-1.12,3.79-1.66,5.69-0.8,2.81-1.53,5.65-2.37,8.45-0.65,2.14-1.45,4.24-2.12,6.38a1,1,0,0,0,.48.83c1.35,0.14,3.75-2,4-3.41,0.48-2.8,1-5.59,1.55-8.38,0.47-2.53.94-5.07,1.42-7.6a6.17,6.17,0,0,1,.35-1Zm20.76,16.62c4.14,0,5-2.92,4.8-5.2a2.05,2.05,0,0,0-.94-1.27,6.6,6.6,0,0,0-5.74-.35c-1.53.5-2.73,3.5-1.79,4.5C185.4,186.32,186.85,187.34,187.88,187.39Zm-18-14.17a3,3,0,0,0-1.19-.88,1.46,1.46,0,0,0-1.08.88c-0.35,1.09-.47,2.25-0.73,3.37-0.91,4-1.85,7.9-2.78,11.85a10.34,10.34,0,0,0-.42,2,1.16,1.16,0,0,0,.65.91c1.38,0.05,2.82-1.5,3-2.9,0.25-2.33.58-4.64,0.9-7,0.26-1.87.5-3.74,0.83-5.6A22.22,22.22,0,0,1,169.84,173.21Zm42.94,42.13c2-.21,3.92-0.16,4.65-2.47a1.39,1.39,0,0,0-.41-1.18c-1.7-.24-2.61-1.74-4-2.41-1.77-.86-3.56-1.66-5.38-2.4a2.8,2.8,0,0,0-1.29.22,2.92,2.92,0,0,0,.51,1.36,20.18,20.18,0,0,0,2.54,1.22c0.92,0.45,1.84.9,2.73,1.4a7.29,7.29,0,0,0,1.34.89c0.69,0.19,1.37.45,1.18,1.18s-1,.56-1.62.36q-2.61-.83-5.23-1.61c-0.75-.23-1.7-0.36-1.87.55a2.18,2.18,0,0,0,1.33,1.5C209.06,214.54,210.94,214.89,212.78,215.34Zm-14.11-7.18a4.65,4.65,0,0,1,1.42,4.08c-0.1,1.23.42,1.27,1.25,1.25,1.89-.05,3.57-0.59,4.51-2.37a3.16,3.16,0,0,0,.44-2.07,5,5,0,0,0-5.72-3.28,1.16,1.16,0,0,0-.64.43C199.49,206.82,199.11,207.46,198.67,208.16ZM204.06,198l0,0.52a16.16,16.16,0,0,0,2.49.23c1.55-.09,3.08-0.35,4.63-0.45a1.28,1.28,0,0,1,.91.56,1.06,1.06,0,0,1-.42.81,5.77,5.77,0,0,1-1.49.7,16.44,16.44,0,0,1-6.11.7c-1.17-.08-1.24.71-1.25,1.58s0.73,0.92,1.34.89a8.13,8.13,0,0,0,2.47-.32,18.54,18.54,0,0,0,5.16-2.4c1-.77,1.66-1.92,2.84-2.58a1.84,1.84,0,0,0,1-2.6c-2,.45-3.85.91-5.76,1.3S206,197.64,204.06,198Zm-31.18-22.48c0.07-.92-0.28-1.39-1.07-1.38s-1.32.07-1.38,1.06a33.23,33.23,0,0,1-.48,4c-0.5,2.78-1.09,5.55-1.59,8.33a1.22,1.22,0,0,0,.37,1.05c0.83,0.31,2.8-1.22,2.87-2.15,0.1-1.23.14-2.47,0.29-3.69C172.21,180.29,172.57,177.83,172.89,175.51Zm0.28,9.44c-0.12,1,.22,1.1,1.09.72a1.79,1.79,0,0,0,1.29-2,7.94,7.94,0,0,1,0-1.55c0.15-1.7-.43-3.51.76-5.07a0.83,0.83,0,0,0-.17-0.79,2.34,2.34,0,0,0-1.49-.51,1.75,1.75,0,0,0-.73,1.3C173.59,179.67,173.39,182.31,173.16,185Zm24,30c1.47,0,2.09-.56,2.11-2s-1.36-3.4-2.46-3.41c-0.78,0-2,1.51-2,2.53C194.86,213.83,195.8,215,197.17,215Zm-1.45-13a11.87,11.87,0,0,0-1.33,1,1,1,0,0,0,.27.78c1.28,0.33,1.64,1.39,2.06,2.42,0.31,0.76.81,0.76,1.25,0.2a5.94,5.94,0,0,0,1.33-2.13,2,2,0,0,0-.84-1.68A9.89,9.89,0,0,0,195.72,202Zm-16.77-23H179a2.71,2.71,0,0,0,0-1.29,2.76,2.76,0,0,0-1.28-.9,1.33,1.33,0,0,0-.69.83c-0.09,1.56-.09,3.12-0.08,4.68a1.7,1.7,0,0,0,.25,1,1.61,1.61,0,0,0,1.3-.2,4,4,0,0,0,.81-1.95A8.64,8.64,0,0,0,178.95,178.95Zm-18.32-17a6.35,6.35,0,0,0-.92-1.16,0.83,0.83,0,0,0-.76.24c-0.55,1.32-1,2.67-1.51,4a3,3,0,0,0,0,1,5.7,5.7,0,0,0,1-.18C160.32,165.2,159.3,163.08,160.62,162Zm-14.54,39.5a3.77,3.77,0,0,0,1.26-1.19c0.15-1-.83-1-1.41-1a1.82,1.82,0,0,0-1.47.63,6.33,6.33,0,0,0-.53,2.43,1.51,1.51,0,0,0,1.06.53,1.3,1.3,0,0,0,.91-0.59A1.72,1.72,0,0,0,146.08,201.5Zm36.1-23.1,0.32-.33a7.39,7.39,0,0,0-1.54-.84,1.76,1.76,0,0,0-.68,1.05,10.57,10.57,0,0,0,.14,2c0,0.53-.1,1.25.77,1.14a1.09,1.09,0,0,0,1.14-1.42A14.39,14.39,0,0,1,182.18,178.39ZM142,201.68a2,2,0,0,0-.55.66c0,1.14.11,2.28,0.24,3.41a1.3,1.3,0,0,0,.61.26,7.24,7.24,0,0,0,1.05-2.53C143.37,202.93,142.53,202.35,142,201.68Zm-2.31,1h-0.44a6.88,6.88,0,0,0,.25,3.92,2.64,2.64,0,0,0,.87.85,0.66,0.66,0,0,0,.43-0.29,4.5,4.5,0,0,0-.16-1.32c-0.13-.42-0.47-0.79-0.59-1.21C139.87,204,139.8,203.37,139.68,202.72Zm-3.56,3.7c0.68,0.57,1.12.95,1.6,1.27a1.66,1.66,0,0,0,.54-0.67,13.61,13.61,0,0,0-1-1.64Zm49.31-27.5a4,4,0,0,0-1.4-.8,1.15,1.15,0,0,0-.85.74,1.18,1.18,0,0,0,.7.92A4.74,4.74,0,0,0,185.43,178.92Zm-6.09-4.73a8,8,0,0,0-1.4-.77,1,1,0,0,0-.53.54,1.76,1.76,0,0,0,.75.86A3,3,0,0,0,179.33,174.19ZM161.5,161.41l0.65,1a2.4,2.4,0,0,0,.73-0.86,2,2,0,0,0-.52-0.9Zm20,13.2a9.21,9.21,0,0,0-1.23-.81,1.18,1.18,0,0,0-.45.57,1.89,1.89,0,0,0,.76.75A2.47,2.47,0,0,0,181.53,174.6Zm-19.74-16.39a3.07,3.07,0,0,0-.78-0.6,1.47,1.47,0,0,0-.59.7,0.77,0.77,0,0,0,.42.5A4,4,0,0,0,161.79,158.22Zm-1.12-2.92a2.8,2.8,0,0,0-1-.55,2.07,2.07,0,0,0-.75.47,1.53,1.53,0,0,0,.57.58A3.57,3.57,0,0,0,160.68,155.29Z" transform="translate(-124.74 -151.12)"/><path d="M200,236.39a4.88,4.88,0,0,1-.74-0.84c-0.25-.45-0.37-1-0.58-1.44a2.6,2.6,0,0,0-3.37-1.39,1,1,0,0,0-.18.95c0.67,1.5,1.52,2.93,2.12,4.46a50,50,0,0,1,1.8,5.62c0.62,2.41,1.1,4.85,1.6,7.28,0.27,1.3.47,2.62,0.66,3.94a0.73,0.73,0,0,1-.53.62c-0.37-1.85-.69-3.71-1.12-5.54-0.84-3.53-1.7-7.07-2.65-10.57a11.53,11.53,0,0,0-1.32-2.21c-0.67-1.21-1.3-2.44-1.93-3.67a18.6,18.6,0,0,0-1-2,1,1,0,0,0-.94-0.28c-1.35.71-2.47,0-3.63-.48-1.68-.65-1.78-0.61-1.87,1.13a17.37,17.37,0,0,0-.05,3.52,2.28,2.28,0,0,0,2.5,1.92,7,7,0,0,0,2.37,0,8.76,8.76,0,0,0,2.07-1.72c-0.2,1.24-.39,2.36-0.56,3.47a4.19,4.19,0,0,0-.14,1.17,44.55,44.55,0,0,1-.34,11.92,51.92,51.92,0,0,1-2.1,8.52,19.51,19.51,0,0,1-4.92,7.85c-0.89.92-1.85,1.78-2.81,2.62a2,2,0,0,1-.88.33c-1.61.32-1.93-.18-1.57-1.79,0.68-3,1.29-6.06,1.73-9.12s0.77-6.24.91-9.38a45.6,45.6,0,0,0-.45-5.78,2.19,2.19,0,0,0,0-.7,2.43,2.43,0,0,0-.79-1.21,1.11,1.11,0,0,0-1.63.71c-0.76,2.66-1.47,5.34-2.27,8a31.49,31.49,0,0,1-1.29,3.29,34.51,34.51,0,0,1-1.59,3.43,22.64,22.64,0,0,1-5.72,7.23c-1.16.88-2.23,1.86-3.38,2.75a7.24,7.24,0,0,1-5.51,1.29,2.18,2.18,0,0,1-.8-0.7c0.52-.37,1.1-1.13,1.54-1.05a7.27,7.27,0,0,0,5.38-1.47,28.11,28.11,0,0,0,4.14-3.48,14.32,14.32,0,0,0,1.73-2.49c0.52-.79,1-1.57,1.51-2.4a12.89,12.89,0,0,0,.73-1.73c1-2.69,2.07-5.38,3-8.09a33.55,33.55,0,0,0,1.19-4.12,1.63,1.63,0,0,0-.49-1.21,3.46,3.46,0,0,0-1.52.59,1.52,1.52,0,0,0-.41.84,68,68,0,0,0-2.37,8.77c-0.35,2.46-2.21,4.08-2.75,6.37a3.74,3.74,0,0,1-1.43,1.33,0.49,0.49,0,0,1-.43,0,0.86,0.86,0,0,1-.12-0.63c0.38-.6.84-1.14,1.24-1.72,0.53-.78,1.41-1.44,1-2.62l-1.81.94c0.87-2.31,1.63-4.2,2.28-6.13s1.24-4,1.81-6a3.11,3.11,0,0,0,0-1.29,1,1,0,0,0-.55-0.37c-0.59.64-1.58,0.77-1.83,1.88a48.22,48.22,0,0,1-1.82,6.51c-1.26,3.4-2.63,6.78-4.15,10.07a32.7,32.7,0,0,1-3,4.63,2.2,2.2,0,0,1-.9.42,3.43,3.43,0,0,1,.27-1.09,31.72,31.72,0,0,0,2.87-4.24c1.38-3.1,3.17-6,3.77-9.47,0.35-2,1.08-4,1.62-5.94,0.17-.63.35-1.3-0.52-1.57s-1.2.23-1.55,0.91c-1.19,2.34-2.31,4.74-3.71,7a27.45,27.45,0,0,1-3.14,3.45,14.8,14.8,0,0,1-1.41,1.74c-2.8,2.26-5.77,4.27-9.38,5a8.93,8.93,0,0,1-2.86,0c-0.79-.1-1.27-0.56-0.55-1.39,1.23-1.39,2.52-2.74,3.66-4.2a36.25,36.25,0,0,0,2.15-3.36c0.57-.92,1.18-1.83,1.68-2.8q1.33-2.56,2.53-5.18a9.28,9.28,0,0,0,.62-2,2.93,2.93,0,0,0-.16-1,4,4,0,0,0-1,.26c-2,1.14-4,2.48-6.08,3.44-3.16,1.44-6.48,2.61-10,1.62a43.92,43.92,0,0,1-5.51-2.36l0-.48a9.51,9.51,0,0,1,1.45-.85c2.38-.89,4.82-1.63,7.16-2.61s4.87-2.26,7.27-3.47a3.69,3.69,0,0,0,.89-1,63.37,63.37,0,0,1-7,.33c-3.73-.23-7.29-1.18-10.11-3.89a14.79,14.79,0,0,1-1.59-1.88c-0.45-.6.07-1.37,1-1.41,1.35-.06,2.71,0,4.07,0q5-.24,9.9-0.58a3.24,3.24,0,0,0,1.13-.63,4.81,4.81,0,0,0-1-.6,39.32,39.32,0,0,1-6-1.92,5.54,5.54,0,0,1-3.22-4.57c-0.07-.89.18-1.39,1.2-1.26a24,24,0,0,0,3.22.26,13.7,13.7,0,0,0,2.26-.39,1.76,1.76,0,0,1,.55-0.06c0.81,0.12,1.61.24,2.41,0.42a3.71,3.71,0,0,1,.86.45c-0.19.34-.36,0.69-0.57,1a0.64,0.64,0,0,1-.29.2c-0.64.28-1.61,0.18-1.4,1.37s0.07,2.56,1.77,2.82a2.79,2.79,0,0,1,.9.33c0.81,0.45,1.16,0,1.42-.68,0.34-.93.66-1.86,1.06-2.76a1.76,1.76,0,0,1,.67-0.47,2.72,2.72,0,0,1,.35.9,1.45,1.45,0,0,1-.4.72c-1.11,1.46-.4,3.08,1.47,3.33,0.2,0,.4,0,0.6.05,1.31,0.21,1.39.07,1.1-1.17a6.8,6.8,0,0,1-.13-2.24,1.86,1.86,0,0,1,.77-0.93,0.85,0.85,0,0,1,.61.09,2.06,2.06,0,0,1-.1,1.14c-0.45.68-.95,1.48-0.19,2a4,4,0,0,0,2.43.41,11.7,11.7,0,0,0,1.81-.83,2.34,2.34,0,0,1,1.63,0,2.9,2.9,0,0,1,.57,1.4,0.21,0.21,0,0,1,0,.12,1.81,1.81,0,0,0,.71,2.3c0.7,0.4,2.4-.31,2.94-1.13,0.86-1.3,1.31-1.31,2.22,0,0.11,0.16.17,0.36,0.27,0.53a1.9,1.9,0,0,0,3.37.32c0.16-.18.29-0.38,0.44-0.56a2.52,2.52,0,0,1,.91-1,4.73,4.73,0,0,1,2.27.54c1.75,1,1.78,1.1,3.31-.28,0.08-.08.18-0.13,0.52-0.37-0.08,1,.11,2-0.27,2.57-0.9,1.39-.07,2.07.9,2.53a12.16,12.16,0,0,0,3.27.89,1.37,1.37,0,0,0,1.17-.59,17.31,17.31,0,0,0,1-3.87,2,2,0,0,0-1.55-1c-1.72.52-3-.63-4.39-1.05-0.24-.07-0.16-1.2-0.23-1.84a10.4,10.4,0,0,0,3,1.17c0.89,0,1.81-.6,2.8-1a6.16,6.16,0,0,0,3.57,2.87c1.81,0.55,3.36.46,4.35-1.62,0,1.22-.23,2.54,1.25,2.77a6,6,0,0,0,3.28-.14c0.8-.37,1.23-1.55,2-2.56a2.94,2.94,0,0,1,0,1,2.42,2.42,0,0,0,.39,2.34,14.56,14.56,0,0,1,.95,2.66,58.37,58.37,0,0,1,2.3,12.58,3.84,3.84,0,0,1-.4,1.29,3.84,3.84,0,0,1-.67-1.31c-0.08-1.28.17-2.5-1-3.61-0.6-.57-0.52-1.86-0.73-2.82-0.27-1.25-.53-2.51-0.8-3.77a1.84,1.84,0,0,0,.6-0.64c-0.23-.82-0.58-1.62-0.89-2.42l-0.26.13Zm-15.75,2,0.34,0.19a3.17,3.17,0,0,1-.33.88c-1.39,1.8-1.2,3.85-1.05,5.94a32.06,32.06,0,0,1,0,8.55,25.57,25.57,0,0,0-.47,4.57,39.52,39.52,0,0,1-2,10.24,5.1,5.1,0,0,0-.09.9,1.9,1.9,0,0,0,.91.06,21.09,21.09,0,0,0,2.88-1.84,9.74,9.74,0,0,0,1.69-2c0.92-1.28,1.81-2.58,2.63-3.92a6.88,6.88,0,0,0,.93-2.14c0.44-2.11.86-4.23,1.1-6.36,0.37-3.39.64-6.8,0.85-10.21a9.92,9.92,0,0,0-.41-3.23,1.88,1.88,0,0,0-1.34-.77,1.26,1.26,0,0,0-1.08.53,9.4,9.4,0,0,0-.22,2.52c0.05,1.55.27,3.1,0.28,4.65a24.9,24.9,0,0,1-.34,3.18c-0.34,2.74-.67,5.47-1.05,8.2a1.81,1.81,0,0,1-.72.6,1.89,1.89,0,0,1-.42-0.84c0.09-.58.4-1.13,0.54-1.71s0.29-1.24-.64-1.51a1.29,1.29,0,0,1-.55-1.08c0.11-1.39.49-2.76,0.52-4.15,0.08-3.31.05-6.62,0-9.93,0-2-1.05-3.05-3-3.44a13.29,13.29,0,0,1-3.24-1.1c-1.32-.64-1.74-0.44-2.24.9a12.91,12.91,0,0,1-1.67,2.45,2.19,2.19,0,0,0-.44.83c0.79,0.82,1.51,2,2.49,2.26,2.41,0.77,4.17-.16,5.48-2.39A8,8,0,0,1,184.24,238.42ZM163,242.17c-0.69-1.32-3.07-1.65-3.62-.56-1.42,2.81-2.69,5.7-4.07,8.53a53.38,53.38,0,0,1-3,5.71,46.6,46.6,0,0,1-3.46,4.14,2.67,2.67,0,0,0-.3.85,2.17,2.17,0,0,0,.84.18c1.12-.26,2.23-0.57,3.33-0.88a14,14,0,0,0,6.5-3.71c1.23-1.28,2.13-2.87,3.31-4.2a23.76,23.76,0,0,0,4.12-7.17,3,3,0,0,0-.35-2.07c-0.25-.52-0.81-0.59-1.17.12-0.73,1.44-1.59,2.83-2.22,4.31-1.32,3.11-3.79,5.32-5.91,7.81a1.81,1.81,0,0,1-.92.14,1.9,1.9,0,0,1,.08-1c0.54-.58,1.2-1,0.47-1.95a1.81,1.81,0,0,1,.38-1.29c0.5-.8,1.16-1.49,1.64-2.3,1.11-1.86,2.14-3.76,3.23-5.63a3.14,3.14,0,0,1,.76-0.65l0.26,0.25-2.66,5.55,0.5,0.25c1.43-2.47,2.86-4.95,4.26-7.43a0.64,0.64,0,0,0-.22-0.59,0.82,0.82,0,0,0-.7.16A15.87,15.87,0,0,0,163,242.17Zm-12.18-6.44,0.07-.45c-0.94-.11-1.87-0.24-2.81-0.31-1.86-.13-3.73-0.2-5.59-0.35a2.29,2.29,0,0,1-.83-0.51,2.82,2.82,0,0,1,.93-0.59c2-.29,4-0.54,6-0.73a3.22,3.22,0,0,1,1.57.28c1.69,0.78,3.28,1.84,5.3,1.47,0.81-.15,1.61-0.21,1.7-1.17a10.65,10.65,0,0,0,5.72-.52c0.61-.19.63-0.75,0.23-1.25l-2.34-2.87a23.66,23.66,0,0,0-3.17,1.27c-1.72,1-3.42.4-5,0-1.79-.48-2.08-0.5-2.81,1.23a5.51,5.51,0,0,1-.44.69c-0.5-1.14-1.16-1.09-2-.53a2.07,2.07,0,0,1-1,.34c-3,.22-6,0.44-9.06.59-0.87,0-1.74-.16-2.61-0.18a3.35,3.35,0,0,0-1,.36C136.5,235.8,147.61,237.43,150.85,235.73ZM146.3,244c0.58-.24.86-0.38,1.16-0.47,0.84-.26,1.7-0.44,2.51-0.77a2.09,2.09,0,0,0,.63-0.92,3.17,3.17,0,0,1,.61-1.13c1.4-.87,2.89-1.59,4.28-2.48a1.53,1.53,0,0,0,.28-1.32,1.13,1.13,0,0,0-1-.47,37,37,0,0,0-3.59,2.1,42.29,42.29,0,0,1-4.87,3.32c-2.81,1.33-5.8,2.3-8.7,3.45a2.18,2.18,0,0,0-.56.51,1.77,1.77,0,0,0,.58.51,15.23,15.23,0,0,0,2,.31,19.2,19.2,0,0,0,10-1.33,72.16,72.16,0,0,0,7.12-4,2.78,2.78,0,0,0,.56-1.23,4.79,4.79,0,0,0-1.32.34c-1,.6-1.95,1.33-3,1.94a20.2,20.2,0,0,1-3,1.63A4.13,4.13,0,0,1,146.3,244Zm17.77-8c-0.7-1.37-1.72-1.23-2.93-.77a5.48,5.48,0,0,1-2.1.18,2,2,0,0,0-2.23,1.36c-0.17,1.1.63,1.51,1.46,1.86,1.79,0.74,3.67.54,5.52,0.47a1.18,1.18,0,0,0,1.37-1.18,0.88,0.88,0,0,1,.64-0.57c1.88,0,3-1.35,4.15-2.52a1.76,1.76,0,0,0-.55-2.71,15.59,15.59,0,0,0-3.84-.1c-1.08.14-1.46,0.58-1,1.69A1.77,1.77,0,0,1,164.07,236Zm10.67,4.58c0.79-1.34.76-1.3-.71-2.15-1-.57-1.88-1.29-2.82-1.93-0.62-.42-1.11-0.69-1.75.19a14.08,14.08,0,0,1-2.29,1.86,1.35,1.35,0,0,0-.46,1,15.8,15.8,0,0,0,.53,2.19,1.67,1.67,0,0,0,2.14,1.37c1.52-.32,3-0.75,4.48-1.13a4.33,4.33,0,0,0,.92.87,1.28,1.28,0,0,0,.76-0.66A7,7,0,0,0,174.74,240.62Zm0-3.4a1.41,1.41,0,0,0,.69-0.15c1.09-1.27,2.17-2.54,3.16-3.88a1.72,1.72,0,0,0-.74-1.13c-0.93-.49-2-0.76-2.93-1.23a0.88,0.88,0,0,0-1.42.43,2.44,2.44,0,0,1-1.88,1.62,0.81,0.81,0,0,0-.42.66,2.06,2.06,0,0,0,.43,1.07C172.48,235.65,172.92,237.27,174.74,237.22Zm-33.89-14.44,0-.2-1.29.33a5,5,0,0,0,.6,1.43,8.91,8.91,0,0,0,1.81,1.59,5.1,5.1,0,0,0,1.55.52,1,1,0,0,0,.24-0.43c-0.38-.36-0.79-0.68-1.2-1a2.28,2.28,0,0,1-.21-0.11c-0.28-.29-0.56-0.59-0.84-0.89a3.83,3.83,0,0,1,1.25-.32c0.65,0.06,1.28.37,1.94,0.44a1.87,1.87,0,0,0,.81-0.46,2.15,2.15,0,0,0-.77-0.57C143.43,222.94,142.14,222.87,140.85,222.77ZM171,255.44c1.19-.71,3.77-9.28,3.36-10.38Zm16.06-9.65a3.46,3.46,0,0,0,0-4.15v4.15ZM187,250.5c0.77-1.44.87-3.44,0-4.22v4.22Z" transform="translate(-124.74 -151.12)"/><path d="M180.46,221.24c0.16,0.7.32,1.41,0.49,2.11a1.7,1.7,0,0,1-2,1.81,7.35,7.35,0,0,1-2.48-1.5c-0.56-.49-0.24-0.95.49-1,0.35,0,.7.15,1,0.13a1.76,1.76,0,0,0,1.13-.28,2.62,2.62,0,0,0,.39-1.35,11.17,11.17,0,0,0-.07-1.57,1.18,1.18,0,0,1,.53,0c0.25,0.5.44,1,.65,1.55Z" transform="translate(-124.74 -151.12)"/><path d="M175.63,220.7c-0.3,1.84.29,3.82-1.05,5.48a1.22,1.22,0,0,1-1.14.27,9.68,9.68,0,0,1-1.58-1.3,2.75,2.75,0,0,1,.93-0.66c1.6-.24,2-0.7,2-2.33a9.28,9.28,0,0,1,.24-1.58Z" transform="translate(-124.74 -151.12)"/><path d="M187.41,204c-1.19,0-1.95-.64-1.92-1.61,0-1.34,1.06-1.31,2-1.31s1.7,0,1.7,1.14A1.66,1.66,0,0,1,187.41,204Z" transform="translate(-124.74 -151.12)"/><path d="M171.57,223.82a7.5,7.5,0,0,1-.54,1.31,5.77,5.77,0,0,1-1.24,1.48,3.16,3.16,0,0,1-1.35.22,4,4,0,0,1,.36-1.07c0.51-.74,1.09-1.43,1.66-2.13a4.07,4.07,0,0,1,.6-0.5Z" transform="translate(-124.74 -151.12)"/><path d="M125.75,204.65l-0.62,6.76a12.57,12.57,0,0,1,.21-6.86Z" transform="translate(-124.74 -151.12)"/><path d="M184.48,220.65L183,222.33a1.91,1.91,0,0,1-.6-0.81c0.1-.78,0-1.81,1.1-2A3.41,3.41,0,0,1,184.48,220.65Z" transform="translate(-124.74 -151.12)"/></svg>